<?xml version="1.0" standalone="no"?>
<!DOCTYPE svg PUBLIC "-//W3C//DTD SVG 20010904//EN"
 "http://www.w3.org/TR/2001/REC-SVG-20010904/DTD/svg10.dtd">
<svg version="1.0" xmlns="http://www.w3.org/2000/svg"
 width="512.000000pt" height="512.000000pt" viewBox="0 0 512.000000 512.000000"
 preserveAspectRatio="xMidYMid meet">
<metadata>
Created by potrace 1.11, written by Peter Selinger 2001-2013
</metadata>
<g transform="translate(0.000000,512.000000) scale(0.100000,-0.100000)"
fill="#000000" stroke="none">
<path d="M3627 4524 c-1 -1 -38 -5 -82 -9 -92 -8 -127 -12 -210 -25 -33 -5
-80 -12 -105 -15 -98 -13 -353 -56 -446 -76 -55 -11 -107 -22 -116 -24 -49
-10 -258 -69 -335 -94 -417 -136 -701 -332 -821 -566 -34 -66 -73 -181 -64
-190 3 -3 -6 -5 -19 -6 -54 -2 -174 -17 -219 -28 -19 -4 -39 -9 -45 -10 -145
-27 -358 -123 -503 -224 -239 -169 -405 -389 -553 -732 -85 -198 -126 -503
-94 -710 66 -434 390 -801 895 -1014 41 -18 84 -36 95 -41 67 -29 303 -94 415
-115 14 -3 36 -7 50 -10 36 -7 77 -12 260 -31 62 -6 342 -7 410 -1 282 25 480
70 700 156 247 98 442 229 610 409 151 161 247 333 274 489 3 20 6 20 111 27
55 3 114 8 130 11 165 30 212 41 295 67 459 146 752 480 836 952 26 146 25
443 -1 589 -3 15 -8 42 -11 60 -3 17 -14 66 -26 107 -166 608 -719 1036 -1358
1053 -39 1 -72 1 -73 1z"/>
</g>
</svg>
